<svg width="80" height="90" viewBox="0 0 80 90" fill="none" xmlns="http://www.w3.org/2000/svg">
<path d="M64.254 55.995C64.636 57.226 64.879 58.506 64.969 59.793C67.865 60.449 70.035 63.038 70.035 66.129C70.035 69.713 67.119 72.629 63.535 72.629C59.951 72.629 57.035 69.713 57.035 66.129C57.035 63.086 59.139 60.532 61.968 59.828C61.826 58.099 61.36 56.391 60.6 54.876C58.165 53.965 55.545 52.617 52.768 50.471C52.698 53.129 39.883 63.276 39.883 63.276C39.883 63.276 27.069 53.129 26.998 50.469C24.475 52.419 22.081 53.711 19.839 54.614C18.962 56.087 18.439 57.788 18.38 59.609C18.959 59.945 19.427 60.465 19.714 61.095C21.85 62.103 23.737 64.225 25.182 67.246C25.424 67.755 25.455 68.329 25.278 68.853C26.144 71.082 26.639 73.518 26.639 75.564C26.639 78.431 26.639 81.142 23.514 81.838C23.175 82.12 22.752 82.274 22.307 82.274H20.219C19.171 82.274 18.319 81.421 18.319 80.375L18.326 80.241C18.396 79.26 19.227 78.475 20.22 78.475H22.308C22.521 78.475 22.731 78.511 22.932 78.582C23.058 78.546 23.098 78.517 23.098 78.517C23.331 78.104 23.331 76.388 23.331 75.564C23.331 73.904 22.915 71.897 22.185 70.03C21.807 69.815 21.502 69.49 21.314 69.097C20.047 66.446 18.326 64.734 16.926 64.734C15.495 64.734 13.688 66.585 12.428 69.338C12.222 69.787 11.861 70.153 11.416 70.37C10.758 72.154 10.396 73.991 10.396 75.563C10.396 76.255 10.396 78.092 10.661 78.523C10.664 78.523 10.723 78.559 10.888 78.6C11.104 78.517 11.336 78.474 11.569 78.474H13.661C14.627 78.474 15.434 79.203 15.545 80.153L15.556 80.174L15.56 80.3C15.56 81.421 14.708 82.274 13.662 82.274H11.57C11.155 82.274 10.754 82.136 10.424 81.883C9.23 81.658 8.387 81.131 7.853 80.274C7.208 79.236 7.09 77.874 7.09 75.564C7.09 73.537 7.558 71.204 8.408 68.975C8.283 68.498 8.325 68 8.532 67.551C9.418 65.615 10.544 63.957 11.788 62.758C12.472 62.099 13.206 61.57 13.976 61.182C14.266 60.505 14.769 59.952 15.383 59.601C15.415 58.305 15.622 57.052 15.998 55.872C6.108 58.455 1.38667e-07 55.782 1.38667e-07 77.994C-0.00199986 86.1 21.631 90 39.803 90C39.83 90 39.858 89.998 39.883 89.998C39.91 89.998 39.938 90 39.963 90C58.139 90 79.77 86.1 79.77 77.994C79.77 56.147 73.86 58.373 64.254 55.995Z" fill="black"/>
<path d="M22.463 33.506C24.354 38.656 27.555 43.621 31.506 46.736C34.063 48.752 36.928 50.002 39.963 50.002C42.979 50.002 45.828 48.77 48.371 46.775C52.351 43.656 55.578 38.656 57.476 33.474C58.677 33.117 59.937 30.839 60.451 27.929C61.008 24.767 60.48 22.007 59.271 21.556C59.214 20.529 59.119 19.49 58.976 18.452C58.49 9.509 55.757 5.511 51.72 3.727C48.862 1.432 45.037 0 39.963 0C34.902 0 31.092 1.396 28.244 3.641C23.799 5.508 20.889 9.955 20.723 20.506C20.696 20.842 20.674 21.174 20.655 21.508C19.337 21.766 18.737 24.629 19.319 27.93C19.856 30.979 21.213 33.328 22.463 33.506Z" fill="black"/>
<path d="M63.535 69.129C65.1919 69.129 66.535 67.7859 66.535 66.129C66.535 64.4722 65.1919 63.129 63.535 63.129C61.8781 63.129 60.535 64.4722 60.535 66.129C60.535 67.7859 61.8781 69.129 63.535 69.129Z" fill="black"/>
</svg>
