<svg width="100" height="112" viewBox="0 0 100 112" fill="none" xmlns="http://www.w3.org/2000/svg">
<path d="M22.2222 22.2222C25.2741 22.2222 28.0593 21.0074 30.0444 18.9333C32.0889 16.9481 33.3333 14.163 33.3333 11.1111C33.3333 8 32.1185 5.21482 30.0444 3.22963C28.0296 1.21482 25.2741 0 22.2222 0C19.1111 0 16.3259 1.21482 14.3407 3.22963C12.3556 5.24444 11.1111 8 11.1111 11.1111C11.1111 17.2148 16.0296 22.2222 22.2222 22.2222Z" fill="black"/>
<path d="M22.2222 27.7926C9.95556 27.7926 0 37.7482 0 50.0148V77.7778H5.54074V77.8371L11.1111 111.111H33.3333L38.9926 77.8371V77.7778H44.4444V49.9852C44.4444 43.8815 41.9556 38.3111 37.9556 34.2519C33.8667 30.2815 28.3259 27.7926 22.2222 27.7926Z" fill="black"/>
<path d="M83.3185 16.6815V0H66.6666V16.6815H49.9852V33.3333H66.6666V50.0148H83.3185V33.3333H100V16.6815H83.3185Z" fill="black"/>
</svg>
